# xmcd CD database file
#
# Track frame offsets:
#	150
#	13977
#	29362
#	38935
#	51925
#	61155
#	73872
#	84515
#	97412
#	107000
#	120045
#
# Disc length: 1801 seconds
#
# Revision: 3
# Processed by: cddbd v1.5.2PL0 Copyright (c) Steve Scherf et al.
# Submitted via: jetAudio 7
#
DISCID=9307070b
DTITLE=The Statler Brothers - The Country America Loves
DYEAR=1900
DGENRE=Country
TTITLE0=The Movies
TTITLE1=Let It Show
TTITLE2=All I Can Do
TTITLE3=You Could Be Coming To Me
TTITLE4=Hat And Boots
TTITLE5=I Was There
TTITLE6=Thank God I've Got You
TTITLE7=Blue Eyes Cryin' In The Rain
TTITLE8=Somebody New Will Be Coming Along
TTITLE9=You Comb Her Hair Every Morning
TTITLE10=A Couple More Years
EXTD=
EXTT0=
EXTT1=
EXTT2=
EXTT3=
EXTT4=
EXTT5=
EXTT6=
EXTT7=
EXTT8=
EXTT9=
EXTT10=
PLAYORDER=
